<svg width="95" height="35" viewBox="0 0 95 35" fill="none" xmlns="http://www.w3.org/2000/svg">
<g filter="url(#filter0_d_1_1655)">
<path d="M25.4091 15.739C24.9024 15.739 23.9728 15.8163 23.3082 15.8527C23.3027 15.8527 23.2972 15.8527 23.2928 15.8527C23.0897 15.8638 22.9108 15.8715 22.7783 15.8715C22.4118 15.8715 21.3796 16.0051 20.8806 16.0051C21.2074 15.1705 21.4845 14.4838 21.7119 13.9407C21.9018 13.487 22.0586 13.1326 22.1789 12.8743C23.3447 10.1111 23.9441 8.74547 23.9441 8.71235C24.0446 8.47941 23.911 8.17914 23.5776 7.81262C23.2641 7.46819 22.9219 7.30149 22.5785 7.28273C22.5565 7.28273 22.5344 7.28052 22.5123 7.28052C22.4461 7.28052 22.3467 7.31364 22.2131 7.34676C21.9128 7.48033 21.4801 8.2796 20.9138 9.74455C20.322 11.1399 19.7314 12.5376 19.1563 13.9407C18.9554 14.4319 18.7555 14.9243 18.5579 15.4189C18.5292 15.4895 18.3581 16.089 18.283 16.1055C17.7344 16.2237 17.0312 16.1674 16.5145 16.3837C16.0862 16.5637 16.0188 17.0693 16.0188 17.4711C16.0188 18.0032 16.2518 18.2693 16.7508 18.2693C16.8843 18.2693 17.4175 18.2031 17.55 18.2362C17.2795 18.9195 17.0422 19.5764 16.8402 20.2089C16.3699 21.6772 16.0895 23.0108 16.0188 24.1975C16.01 24.3355 16.01 24.4735 16.0188 24.6093C16.0365 24.8864 16.0928 25.1525 16.2021 25.3887C16.3213 25.647 16.5024 25.8711 16.7651 26.0378C16.8435 26.0875 16.9296 26.1328 17.0245 26.1714C17.3723 26.3116 17.7587 26.2708 17.9552 26.0378C18.0501 25.9274 18.0998 25.7762 18.0843 25.5808C18.0236 24.8599 18.1782 24.1501 18.3393 23.4524C18.5193 22.6774 18.676 21.9201 18.9167 21.1628C19.0183 20.8448 19.1209 20.5269 19.2302 20.21C19.3417 19.8822 19.4565 19.5565 19.5802 19.2352C19.631 19.105 19.8981 18.1975 20.0483 18.1721C20.9005 18.0264 21.7583 17.9238 22.5818 17.735C22.8722 17.6687 23.1592 17.5926 23.4407 17.4976C24.1406 17.2647 24.8063 16.9302 25.4102 16.4069C25.9092 15.9753 25.9092 15.7412 25.4102 15.7412L25.4091 15.739Z" fill="white"/>
<path d="M32.2462 13.9404C32.1722 13.8631 32.0927 13.7936 32.011 13.7329C31.8521 13.6137 31.6842 13.5364 31.5429 13.5364C31.3034 13.5364 31.0716 13.7042 30.8486 13.9415C30.6399 14.1623 30.4379 14.4438 30.2436 14.7033C29.0613 16.2797 28.1549 18.1299 27.1514 19.8234C27.0752 19.9526 26.9991 20.0806 26.9229 20.2098C26.7396 20.5189 26.5553 20.8291 26.372 21.1393C26.2793 21.2939 25.8819 21.7697 25.8819 21.9573C25.8565 21.3745 25.8399 20.7927 25.83 20.2098C25.8267 20.0155 25.8234 19.8212 25.8211 19.628C25.809 18.5185 25.8145 17.4102 25.8145 16.3007C25.8145 15.4021 25.7141 14.8026 25.5142 14.5697C25.3486 14.3367 24.8817 14.138 24.1498 14.0376C24.1001 14.0254 24.046 14.0166 23.9897 14.0122C23.8936 14.0033 23.7888 14.0033 23.6839 14.0033C23.3836 14.0033 23.218 14.17 23.218 14.5366C23.218 14.8026 23.218 15.0355 23.2511 15.2033C23.2699 15.4142 23.2887 15.6206 23.3052 15.8194C23.3052 15.8315 23.3074 15.8425 23.3085 15.8536C23.3604 16.4574 23.4046 17.0061 23.441 17.4963C23.4973 18.2591 23.5337 18.8839 23.5525 19.3653C23.5647 19.6578 23.5768 19.9393 23.59 20.2098C23.6883 22.2709 23.8153 23.7082 23.9753 24.5141C24.0305 24.7978 24.0901 25.0021 24.152 25.1279C24.3805 25.6147 24.9821 25.9537 25.3785 26.0387C25.4425 26.053 25.501 26.0596 25.5507 26.0596C25.6004 26.0596 25.65 26.053 25.7019 26.0387C26.0353 25.9537 26.425 25.5949 26.9163 24.9612C27.8557 23.6895 28.6042 22.2996 29.3063 20.8865V20.8843C29.4189 20.6602 29.5282 20.4361 29.6386 20.2109C30.2491 18.9601 30.843 17.7016 31.5176 16.5005C31.7218 16.1362 31.9326 15.7752 32.1567 15.423C32.3036 15.1901 32.6425 14.9329 32.6425 14.6381C32.6425 14.4527 32.4725 14.1734 32.2473 13.9437L32.2462 13.9404Z" fill="white"/>
<path d="M40.8481 21.3839C40.8392 21.3629 40.8249 21.3397 40.8028 21.3386C40.7829 21.3364 40.7664 21.3519 40.7531 21.3651C40.5511 21.5716 40.3391 21.7725 40.1205 21.9646C39.2131 22.7661 38.1776 23.4384 37.0405 23.8457C36.8462 23.9164 36.6431 23.9815 36.4366 24.0378C35.6363 24.2597 34.7675 24.369 33.9682 24.2189C33.2804 24.0897 32.947 23.6581 32.8234 23.1248C32.6898 22.5464 32.8035 21.8476 32.9813 21.2812C33.1237 21.374 33.2738 21.4557 33.4284 21.5263C33.8865 21.7361 34.3976 21.8476 34.9463 21.8476C35.145 21.8476 35.2786 21.8476 35.378 21.8144C36.3704 21.5914 37.2028 20.9865 37.8155 20.2093C37.863 20.1497 37.9093 20.0879 37.9535 20.0271C38.2814 19.5723 38.5364 19.0678 38.7075 18.5512C38.8311 18.1813 38.9415 17.7453 38.9835 17.3037C39.0541 16.5729 38.9327 15.831 38.3575 15.364C37.6035 14.7491 36.7204 14.7668 35.8692 15.0737C34.8999 15.4225 33.9726 16.1467 33.3235 16.7429C32.299 17.6845 31.439 18.8746 31.0217 20.2093C30.886 20.6365 30.7987 21.0803 30.7645 21.534C30.6928 22.4934 30.7645 23.4373 31.3562 24.2387C31.5229 24.465 31.7194 24.6715 31.9369 24.8569C31.9943 24.9055 32.0517 24.953 32.1113 24.9982C32.9062 25.6054 33.9395 25.9432 34.9099 25.9432C35.1892 25.9432 35.4674 25.9145 35.7423 25.8649C35.8593 25.8439 35.9741 25.8196 36.09 25.792C37.3772 25.4818 38.6953 24.7929 39.669 23.8181C40.0687 23.4196 40.4098 22.9725 40.6681 22.4834C40.8392 22.1578 40.996 21.746 40.8436 21.3828L40.8481 21.3839ZM34.4473 18.8371V18.8349C34.7454 18.4816 35.0777 18.1581 35.4133 17.8479C35.7654 17.5223 36.1353 17.2109 36.5327 16.9405C36.6619 16.8533 37.2171 16.4338 37.3805 16.6005C37.6576 16.8831 36.9765 17.636 36.8076 17.8568C36.4974 18.2608 36.1474 18.6328 35.7754 18.9795C35.6517 19.0954 35.5248 19.2146 35.3934 19.3305C35.1417 19.5513 34.8723 19.7556 34.5721 19.8814C34.4285 19.941 34.2729 19.9808 34.1172 19.9786C34.0852 19.9786 34.0521 19.9753 34.0201 19.9708C33.9251 19.9565 33.8324 19.9278 33.7474 19.8891C33.934 19.5061 34.1757 19.1616 34.4473 18.8371Z" fill="white"/>
<path d="M49.9898 18.9152C49.291 18.3158 48.7567 17.5165 48.4255 16.4843C48.2765 15.9699 47.9608 15.6199 47.5953 15.4786C47.2277 15.3362 46.8115 15.4013 46.4605 15.7182C45.0618 16.9182 43.9291 18.3169 43.0967 19.9143C43.7955 18.116 44.1952 16.885 44.2956 16.2183C44.3685 15.7623 44.3011 15.4963 43.7481 15.185C43.5339 15.0624 43.2458 14.9355 42.8638 14.7853C42.6982 14.7191 42.4973 14.7853 42.3306 14.9851C42.165 15.1507 41.8989 15.7513 41.5324 16.7835C41.2531 17.6214 40.9263 18.7629 40.5731 20.209C40.5057 20.4883 40.4362 20.7787 40.3666 21.0801L40.1216 21.9643L40.0332 22.279C39.8875 22.8332 39.7672 23.3608 39.6723 23.819C39.6579 23.8841 39.6458 23.9481 39.6325 24.01C39.5321 24.5101 39.4669 24.8435 39.4669 25.0091C39.4669 25.3093 39.5409 25.5478 39.7595 25.7189C39.9924 25.9033 40.3909 26.0114 41.039 26.0357C41.1317 26.039 41.2288 26.0412 41.3315 26.0412C41.3458 26.0412 41.3602 26.039 41.3757 26.0357C41.6737 25.9695 42.0899 25.2365 42.6298 23.8102C42.8627 23.2438 43.2623 22.3772 43.8949 21.2114C44.0505 20.9178 44.2658 20.5789 44.5374 20.208C44.7273 19.9474 44.9481 19.6692 45.1942 19.3811C45.7937 18.6481 46.2927 18.148 46.6592 17.915C46.6614 17.9206 46.6636 17.925 46.6658 17.9305C47.2973 19.3855 47.8636 19.9474 48.9576 19.9474C49.4235 19.9474 50.2559 19.0808 49.9898 18.9152Z" fill="white"/>
<path d="M55.5794 14.578C55.2846 14.2943 54.9335 14.0757 54.5416 13.941C54.1773 13.8174 53.7777 13.7666 53.3505 13.8041C53.1198 13.835 52.9045 13.8803 52.7036 13.941C52.2829 14.068 51.9286 14.2611 51.6427 14.5206C51.0576 15.0516 50.7529 15.8597 50.722 16.9526C50.722 17.0133 50.7198 17.074 50.7198 17.1347C50.7198 17.9539 50.9129 18.9949 51.328 20.2082C51.3667 20.3252 51.4097 20.4433 51.4539 20.5647C51.8712 21.778 52.1483 22.6854 52.2841 23.2827C52.3978 23.785 52.411 24.0665 52.3194 24.1283C52.23 24.0875 52.1361 24.0267 52.0335 23.9473C51.7166 23.6956 51.3336 23.244 50.8533 22.5629C50.2208 21.6632 49.8222 21.2315 49.5893 21.2315C49.4888 21.2315 49.3564 21.2646 49.2217 21.332C49.1433 21.375 49.076 21.4192 49.0152 21.4645C48.7933 21.63 48.6896 21.8144 48.6896 21.9977C48.6896 22.076 48.6995 22.1566 48.7205 22.2438C48.8463 22.7881 49.3729 23.509 50.3212 24.4286C50.7385 24.8216 51.1282 25.1406 51.4892 25.3879C52.0754 25.7898 52.5854 25.994 53.0182 25.994C53.1518 26.0282 53.3174 26.0282 53.5503 26.0282C54.3164 26.0282 54.5825 25.6948 54.5825 24.73C54.5825 24.497 54.3827 23.3312 53.9499 21.2337C53.9135 21.109 53.8031 20.7855 53.6452 20.2115C53.6198 20.1165 53.5922 20.015 53.5635 19.9046C53.4421 19.4398 53.3008 18.8448 53.1496 18.1029C52.8504 16.3377 53.1827 15.4711 53.8163 15.4711C54.1486 15.4711 54.3816 15.704 54.5483 16.171C54.6156 16.4028 54.6487 16.6026 54.6487 16.7704C54.6487 16.8753 54.6322 17.0045 54.6112 17.1347C54.5715 17.3743 54.5151 17.615 54.5151 17.7022C54.5151 17.8689 54.6156 18.0698 54.7812 18.2354C55.0815 18.5346 55.3807 18.6681 55.6809 18.6681C56.2804 18.6681 56.5795 18.1349 56.5795 17.0696C56.5795 16.0749 56.2042 15.1807 55.5794 14.5791V14.578Z" fill="white"/>
<path d="M66.0514 21.6132C66.0183 21.5127 65.9851 21.4796 65.9509 21.5127C65.3482 22.1155 64.7355 22.6244 64.115 23.0395C62.7108 23.98 61.258 24.4437 59.7577 24.4437C59.7125 24.4437 59.6683 24.4437 59.6252 24.4437C59.0302 24.4261 58.6085 24.2925 58.359 24.0121C57.86 23.48 57.7938 22.6134 58.1603 21.4476C58.7255 21.8152 59.3923 22.0139 60.1242 22.0139C60.3241 22.0139 60.4576 22.0139 60.557 21.9808C61.6179 21.7423 62.4966 21.0656 63.1182 20.21C63.4527 19.7519 63.7132 19.2397 63.8865 18.7164C64.0521 18.2174 64.1526 17.6842 64.1526 17.1521C64.1526 16.9192 64.1526 16.7193 64.1195 16.5858C64.019 16.0194 63.7529 15.6198 63.2871 15.3526C63.2263 15.3162 63.1645 15.2831 63.1027 15.2533C62.8212 15.1186 62.5209 15.0535 62.2206 15.0535C61.0493 15.0535 59.8262 15.6761 58.5224 16.8949V16.8971C58.3789 17.0307 58.2365 17.1697 58.0919 17.3166C57.2098 18.2406 56.5927 19.201 56.2505 20.2089C56.0363 20.8371 55.9281 21.4807 55.9281 22.1453C55.9281 22.6321 55.9546 23.0516 56.0495 23.4303C56.1942 24.0132 56.5011 24.5055 57.127 25.0089C57.7287 25.498 58.3601 25.8248 59.0402 25.9848C59.1174 26.0047 59.1947 26.0213 59.2731 26.0356C59.5369 26.0831 59.8096 26.1074 60.09 26.1074C60.345 26.1074 60.6111 26.0831 60.8815 26.0356C61.693 25.8965 62.5518 25.5631 63.329 25.1116C64.0521 24.6921 64.7068 24.1688 65.1848 23.6091L65.3183 23.4435C65.8847 22.7436 66.1176 22.1111 66.0503 21.6121L66.0514 21.6132ZM62.5386 16.7491C62.5651 16.7624 62.5816 16.7845 62.5883 16.8187C62.6722 16.9821 62.5275 17.3044 62.1401 17.8023V17.8056C62.0573 17.9127 61.9634 18.0264 61.8574 18.1501C61.2911 18.8489 60.8595 19.2827 60.5592 19.4825C59.9266 20.082 59.3603 20.2807 58.9275 20.0478C59.676 18.5508 62.15 16.5571 62.5408 16.7491H62.5386Z" fill="white"/>
<path d="M68.0703 23.4143C68.0218 23.4143 67.9732 23.4176 67.9279 23.4231C67.1485 23.5114 66.5458 24.2997 66.5458 24.94C66.5458 25.3782 66.7114 25.7414 66.9874 25.9081C67.0911 25.9711 67.2115 26.0064 67.345 26.0064C67.6597 26.0064 67.9986 25.8132 68.3607 25.4489C68.725 25.0857 68.9182 24.6993 68.9182 24.335C68.9182 23.73 68.6278 23.4154 68.0703 23.4154V23.4143Z" fill="white"/>
<path d="M86.1413 21.6292C86.0916 21.67 85.3034 22.424 84.3783 23.125C84.1531 23.295 83.9213 23.4628 83.6883 23.6152V23.6174C83.1032 24.0016 82.5248 24.2985 82.0865 24.3283C81.295 24.4387 80.9516 24.0027 80.8743 23.2067C80.796 22.4008 80.9053 21.4017 81.1735 20.2084C81.1912 20.1267 81.2111 20.045 81.2309 19.9611C81.3038 19.6443 81.38 19.3385 81.4617 19.0437C81.7244 18.0921 82.0324 17.2443 82.3658 16.4726C82.5535 15.9857 82.283 15.6104 81.518 15.3156C80.7143 14.958 80.2175 15.0065 79.9614 15.4658C79.6445 15.2858 79.3167 15.1765 78.9855 15.1302C77.3152 14.8939 75.529 16.2143 74.3974 17.7753C74.0905 18.1848 73.8002 18.6253 73.5319 19.0801V19.0834C73.3156 19.45 73.1158 19.8264 72.9358 20.2062C72.4788 21.1721 72.152 22.1558 72.0361 23.0279V23.0323C71.8164 24.6882 72.3529 25.95 74.1833 25.9578C74.4272 25.9523 74.6779 25.9114 74.9329 25.8363C76.1053 25.4897 77.3903 24.4012 78.8044 22.5344C78.9214 23.2465 79.1411 23.868 79.4414 24.3813C80.0221 25.3782 80.9031 25.971 81.922 26.0328C82.0479 26.0417 82.1737 26.0417 82.304 26.0328C82.4607 26.0229 82.6208 25.9997 82.782 25.9644C82.7886 25.9644 82.7963 25.9611 82.803 25.96C83.4477 25.8143 84.0979 25.3429 84.7448 24.5778C84.9457 24.3394 85.1478 24.0722 85.3476 23.7764C86.0177 22.742 86.3842 22.0365 86.3754 21.6027C86.3632 21.4702 86.2959 21.4757 86.1435 21.6259L86.1413 21.6292ZM77.1728 21.256C76.8261 21.7175 76.5027 22.1248 76.2024 22.4792V22.4814C75.4263 23.3966 74.8125 23.9486 74.3732 24.1351C74.117 24.261 74.0342 24.1009 74.0994 23.7267C74.4261 22.53 75.0201 21.2847 75.6935 20.2084C76.4828 18.9488 77.3825 17.921 78.0935 17.4783C78.5196 17.2122 78.8795 17.157 79.1058 17.3889C79.1621 17.9707 78.7625 18.9167 77.908 20.2084C77.6916 20.5351 77.4455 20.8851 77.1706 21.256H77.1728Z" fill="white"/>
<path d="M92.035 22.4825C92.0262 22.4881 92.0174 22.4925 92.0085 22.498L91.2104 22.9981C90.7776 23.2973 90.3107 23.5975 89.8779 23.8305C89.1581 24.2621 88.0144 24.7203 87.309 24.5105C87.1986 24.4796 87.1004 24.4299 87.0143 24.3637C86.714 24.1981 86.5484 23.8316 86.5484 23.2652C86.5484 22.4141 86.7416 21.3918 87.128 20.2095C87.4216 19.3098 87.8279 18.3173 88.3467 17.2376C88.647 16.6724 88.3136 16.3059 87.3476 16.073C87.0286 15.9438 86.778 15.9173 86.5605 16.0354C86.3232 16.1646 86.1245 16.466 85.9158 17.0047C85.4444 18.187 85.0713 19.2513 84.813 20.2095C84.7059 20.6025 84.6198 20.9756 84.5513 21.3344C84.5513 21.341 84.5491 21.3466 84.548 21.3532V21.3565C84.41 22.0122 84.3548 22.6029 84.3813 23.125C84.4089 23.6847 84.5304 24.1694 84.7456 24.5823C84.8571 24.7953 84.9918 24.9885 85.153 25.1629C85.5394 25.567 85.9754 25.8584 86.4545 26.0373C86.5373 26.0682 86.619 26.0958 86.704 26.119C87.1048 26.2327 87.5331 26.2691 87.9824 26.2294C88.2319 26.2106 88.4913 26.1466 88.7585 26.0384C89.4154 25.7723 90.1219 25.2369 90.8792 24.4321C91.1651 24.1352 91.408 23.8669 91.6045 23.6284C92.0052 23.1438 92.2216 22.7795 92.2437 22.5344C92.2757 22.4075 92.1874 22.4008 92.0373 22.4847L92.035 22.4825ZM90.3438 10.0112C89.9773 9.64464 89.6119 9.44482 89.3116 9.44482C89.2144 9.44482 89.1217 9.46138 89.0345 9.49671C88.732 9.61152 88.4858 9.92063 88.2805 10.4108C88.0476 11.0445 87.9129 11.6108 87.9129 12.1098C87.9129 12.2257 87.9151 12.3339 87.9206 12.4376C87.9427 12.845 88.0078 13.1552 88.1127 13.3418C88.2794 13.6421 88.4792 13.8077 88.7121 13.8077C89.1129 13.8077 89.5445 13.4411 89.9773 12.7423C90.41 12.0435 90.6441 11.4441 90.6441 11.0102C90.6441 10.5444 90.5436 10.211 90.3438 10.0123V10.0112Z" fill="white"/>
<path d="M18.3173 0.725142C18.0612 0.435906 17.7377 0.225051 17.3525 0.111343C16.19 -0.231987 15.0695 0.26038 14.0848 1.01769C12.006 2.61732 10.498 4.84069 9.07169 7.00665C7.344 9.62965 5.91107 12.4392 4.82036 15.3846C4.79939 15.4409 4.02441 15.3978 3.95928 15.4011C3.53205 15.4155 2.86636 15.3614 2.49875 15.612C2.04723 15.9189 1.65532 17.7746 2.4855 17.8376C2.51972 17.8398 3.89525 17.7492 4.09506 17.7647C4.0211 17.7592 3.74842 18.6821 3.50555 19.563C3.30132 20.306 3.11586 21.018 3.09047 21.1196C2.80454 22.239 2.60252 23.3871 2.56719 24.5441C2.55836 24.8068 2.55946 25.0707 2.5705 25.3356C2.57492 25.467 2.58265 25.5984 2.59258 25.7297C2.64226 26.3689 2.76038 26.9794 2.94695 27.5612C3.10151 28.1419 3.4901 28.7071 4.10942 29.3253C4.17897 29.3915 4.24851 29.4545 4.31475 29.5119C4.87446 29.9921 5.34364 30.161 5.81613 29.8409C6.0866 29.6664 6.28973 29.4534 6.12082 29.1211C6.05569 28.9941 5.95854 28.8881 5.86691 28.78C5.57326 28.4322 5.34805 28.0646 5.17915 27.6804C4.87446 26.9938 4.75302 26.2596 4.74861 25.5089C4.74529 24.7516 4.86121 23.9778 5.03011 23.2182C5.27078 22.1209 5.57326 20.9706 5.95744 19.7595C6.15836 19.1237 6.38246 18.4712 6.63085 17.8011C7.21153 17.7647 8.31438 17.7249 9.90518 17.6786C10.243 17.6686 10.604 17.6576 10.986 17.6477C11.4231 17.6157 11.8239 17.6146 11.528 18.3917C11.3061 18.9768 11.0875 19.563 10.8711 20.1514C10.4516 21.2951 10.0432 22.4444 9.64575 23.5936C9.39074 24.331 9.65127 25.1413 10.2463 25.6215C10.3446 25.7021 10.4516 25.7728 10.5676 25.8324C10.6956 25.9019 10.8082 25.9582 10.9065 26.0002C11.1471 26.104 11.3072 26.1238 11.4364 26.0421C11.6086 25.9329 11.7223 25.6436 11.8934 25.1358L13.5946 20.3678L14.6875 17.3066C14.7747 17.0317 14.7339 16.7612 14.5595 16.494C14.4645 16.3483 14.3287 16.2048 14.1532 16.0613C13.6509 15.6539 13.0967 15.4751 12.4641 15.4585C11.9265 15.4353 11.4331 15.4155 10.9826 15.3978C9.09488 15.3272 7.98209 15.3084 7.63214 15.3073C7.81539 15.251 8.11236 14.1835 8.18964 14.0035C8.4866 13.3058 8.86857 12.6479 9.23618 11.9844C10.4428 9.80849 11.6792 7.64694 13.0603 5.57592C13.1795 5.39818 15.9052 1.3842 16.3225 2.29607C16.4318 2.53563 16.2308 2.98936 16.1613 3.21677C16.0321 3.64069 15.8698 4.04032 15.6932 4.44878C15.4106 5.10122 15.117 5.74924 14.8123 6.39175C14.5484 6.94814 14.1963 7.59174 14.5738 8.1923C15.1589 9.12293 16.5653 8.87233 17.1195 8.13379C17.9298 7.05301 18.1407 5.6267 18.367 4.33177C18.5359 3.36691 19.0548 1.55973 18.3162 0.72404L18.3173 0.725142Z" fill="white"/>
<path d="M15.5672 12.0072C15.3056 11.7003 15.034 11.5226 14.8022 11.5049C14.7271 11.4994 14.6531 11.5049 14.5847 11.5281C14.3429 11.5976 14.1332 11.8228 13.9433 12.1905C13.7236 12.6674 13.5845 13.0979 13.5536 13.4854C13.547 13.5748 13.5415 13.6598 13.5392 13.7404C13.5315 14.0573 13.5624 14.3023 13.6331 14.4536C13.7446 14.6964 13.8881 14.8377 14.0691 14.8521C14.3794 14.8764 14.737 14.6192 15.1157 14.1047C15.4943 13.5892 15.7129 13.1388 15.7394 12.8032C15.7681 12.4422 15.7107 12.1772 15.5683 12.0105L15.5672 12.0072Z" fill="white"/>
<path d="M25.4091 15.739C24.9024 15.739 23.9728 15.8163 23.3082 15.8527C23.3027 15.8527 23.2972 15.8527 23.2928 15.8527C23.0897 15.8638 22.9108 15.8715 22.7783 15.8715C22.4118 15.8715 21.3796 16.0051 20.8806 16.0051C21.2074 15.1705 21.4845 14.4838 21.7119 13.9407C21.9018 13.487 22.0586 13.1326 22.1789 12.8743C23.3447 10.1111 23.9441 8.74547 23.9441 8.71235C24.0446 8.47941 23.911 8.17914 23.5776 7.81262C23.2641 7.46819 22.9219 7.30149 22.5785 7.28273C22.5565 7.28273 22.5344 7.28052 22.5123 7.28052C22.4461 7.28052 22.3467 7.31364 22.2131 7.34676C21.9128 7.48033 21.4801 8.2796 20.9138 9.74455C20.322 11.1399 19.7314 12.5376 19.1563 13.9407C18.9554 14.4319 18.7555 14.9243 18.5579 15.4189C18.5292 15.4895 18.3581 16.089 18.283 16.1055C17.7344 16.2237 17.0312 16.1674 16.5145 16.3837C16.0862 16.5637 16.0188 17.0693 16.0188 17.4711C16.0188 18.0032 16.2518 18.2693 16.7508 18.2693C16.8843 18.2693 17.4175 18.2031 17.55 18.2362C17.2795 18.9195 17.0422 19.5764 16.8402 20.2089C16.3699 21.6772 16.0895 23.0108 16.0188 24.1975C16.01 24.3355 16.01 24.4735 16.0188 24.6093C16.0365 24.8864 16.0928 25.1525 16.2021 25.3887C16.3213 25.647 16.5024 25.8711 16.7651 26.0378C16.8435 26.0875 16.9296 26.1328 17.0245 26.1714C17.3723 26.3116 17.7587 26.2708 17.9552 26.0378C18.0501 25.9274 18.0998 25.7762 18.0843 25.5808C18.0236 24.8599 18.1782 24.1501 18.3393 23.4524C18.5193 22.6774 18.676 21.9201 18.9167 21.1628C19.0183 20.8448 19.1209 20.5269 19.2302 20.21C19.3417 19.8822 19.4565 19.5565 19.5802 19.2352C19.631 19.105 19.8981 18.1975 20.0483 18.1721C20.9005 18.0264 21.7583 17.9238 22.5818 17.735C22.8722 17.6687 23.1592 17.5926 23.4407 17.4976C24.1406 17.2647 24.8063 16.9302 25.4102 16.4069C25.9092 15.9753 25.9092 15.7412 25.4102 15.7412L25.4091 15.739Z" fill="white"/>
<path d="M32.2462 13.9404C32.1722 13.8631 32.0927 13.7936 32.011 13.7329C31.8521 13.6137 31.6842 13.5364 31.5429 13.5364C31.3034 13.5364 31.0716 13.7042 30.8486 13.9415C30.6399 14.1623 30.4379 14.4438 30.2436 14.7033C29.0613 16.2797 28.1549 18.1299 27.1514 19.8234C27.0752 19.9526 26.9991 20.0806 26.9229 20.2098C26.7396 20.5189 26.5553 20.8291 26.372 21.1393C26.2793 21.2939 25.8819 21.7697 25.8819 21.9573C25.8565 21.3745 25.8399 20.7927 25.83 20.2098C25.8267 20.0155 25.8234 19.8212 25.8211 19.628C25.809 18.5185 25.8145 17.4102 25.8145 16.3007C25.8145 15.4021 25.7141 14.8026 25.5142 14.5697C25.3486 14.3367 24.8817 14.138 24.1498 14.0376C24.1001 14.0254 24.046 14.0166 23.9897 14.0122C23.8936 14.0033 23.7888 14.0033 23.6839 14.0033C23.3836 14.0033 23.218 14.17 23.218 14.5366C23.218 14.8026 23.218 15.0355 23.2511 15.2033C23.2699 15.4142 23.2887 15.6206 23.3052 15.8194C23.3052 15.8315 23.3074 15.8425 23.3085 15.8536C23.3604 16.4574 23.4046 17.0061 23.441 17.4963C23.4973 18.2591 23.5337 18.8839 23.5525 19.3653C23.5647 19.6578 23.5768 19.9393 23.59 20.2098C23.6883 22.2709 23.8153 23.7082 23.9753 24.5141C24.0305 24.7978 24.0901 25.0021 24.152 25.1279C24.3805 25.6147 24.9821 25.9537 25.3785 26.0387C25.4425 26.053 25.501 26.0596 25.5507 26.0596C25.6004 26.0596 25.65 26.053 25.7019 26.0387C26.0353 25.9537 26.425 25.5949 26.9163 24.9612C27.8557 23.6895 28.6042 22.2996 29.3063 20.8865V20.8843C29.4189 20.6602 29.5282 20.4361 29.6386 20.2109C30.2491 18.9601 30.843 17.7016 31.5176 16.5005C31.7218 16.1362 31.9326 15.7752 32.1567 15.423C32.3036 15.1901 32.6425 14.9329 32.6425 14.6381C32.6425 14.4527 32.4725 14.1734 32.2473 13.9437L32.2462 13.9404Z" fill="white"/>
<path d="M40.8481 21.3839C40.8392 21.3629 40.8249 21.3397 40.8028 21.3386C40.7829 21.3364 40.7664 21.3519 40.7531 21.3651C40.5511 21.5716 40.3391 21.7725 40.1205 21.9646C39.2131 22.7661 38.1776 23.4384 37.0405 23.8457C36.8462 23.9164 36.6431 23.9815 36.4366 24.0378C35.6363 24.2597 34.7675 24.369 33.9682 24.2189C33.2804 24.0897 32.947 23.6581 32.8234 23.1248C32.6898 22.5464 32.8035 21.8476 32.9813 21.2812C33.1237 21.374 33.2738 21.4557 33.4284 21.5263C33.8865 21.7361 34.3976 21.8476 34.9463 21.8476C35.145 21.8476 35.2786 21.8476 35.378 21.8144C36.3704 21.5914 37.2028 20.9865 37.8155 20.2093C37.863 20.1497 37.9093 20.0879 37.9535 20.0271C38.2814 19.5723 38.5364 19.0678 38.7075 18.5512C38.8311 18.1813 38.9415 17.7453 38.9835 17.3037C39.0541 16.5729 38.9327 15.831 38.3575 15.364C37.6035 14.7491 36.7204 14.7668 35.8692 15.0737C34.8999 15.4225 33.9726 16.1467 33.3235 16.7429C32.299 17.6845 31.439 18.8746 31.0217 20.2093C30.886 20.6365 30.7987 21.0803 30.7645 21.534C30.6928 22.4934 30.7645 23.4373 31.3562 24.2387C31.5229 24.465 31.7194 24.6715 31.9369 24.8569C31.9943 24.9055 32.0517 24.953 32.1113 24.9982C32.9062 25.6054 33.9395 25.9432 34.9099 25.9432C35.1892 25.9432 35.4674 25.9145 35.7423 25.8649C35.8593 25.8439 35.9741 25.8196 36.09 25.792C37.3772 25.4818 38.6953 24.7929 39.669 23.8181C40.0687 23.4196 40.4098 22.9725 40.6681 22.4834C40.8392 22.1578 40.996 21.746 40.8436 21.3828L40.8481 21.3839ZM34.4473 18.8371V18.8349C34.7454 18.4816 35.0777 18.1581 35.4133 17.8479C35.7654 17.5223 36.1353 17.2109 36.5327 16.9405C36.6619 16.8533 37.2171 16.4338 37.3805 16.6005C37.6576 16.8831 36.9765 17.636 36.8076 17.8568C36.4974 18.2608 36.1474 18.6328 35.7754 18.9795C35.6517 19.0954 35.5248 19.2146 35.3934 19.3305C35.1417 19.5513 34.8723 19.7556 34.5721 19.8814C34.4285 19.941 34.2729 19.9808 34.1172 19.9786C34.0852 19.9786 34.0521 19.9753 34.0201 19.9708C33.9251 19.9565 33.8324 19.9278 33.7474 19.8891C33.934 19.5061 34.1757 19.1616 34.4473 18.8371Z" fill="white"/>
<path d="M49.9898 18.9152C49.291 18.3158 48.7567 17.5165 48.4255 16.4843C48.2765 15.9699 47.9608 15.6199 47.5953 15.4786C47.2277 15.3362 46.8115 15.4013 46.4605 15.7182C45.0618 16.9182 43.9291 18.3169 43.0967 19.9143C43.7955 18.116 44.1952 16.885 44.2956 16.2183C44.3685 15.7623 44.3011 15.4963 43.7481 15.185C43.5339 15.0624 43.2458 14.9355 42.8638 14.7853C42.6982 14.7191 42.4973 14.7853 42.3306 14.9851C42.165 15.1507 41.8989 15.7513 41.5324 16.7835C41.2531 17.6214 40.9263 18.7629 40.5731 20.209C40.5057 20.4883 40.4362 20.7787 40.3666 21.0801L40.1216 21.9643L40.0332 22.279C39.8875 22.8332 39.7672 23.3608 39.6723 23.819C39.6579 23.8841 39.6458 23.9481 39.6325 24.01C39.5321 24.5101 39.4669 24.8435 39.4669 25.0091C39.4669 25.3093 39.5409 25.5478 39.7595 25.7189C39.9924 25.9033 40.3909 26.0114 41.039 26.0357C41.1317 26.039 41.2288 26.0412 41.3315 26.0412C41.3458 26.0412 41.3602 26.039 41.3757 26.0357C41.6737 25.9695 42.0899 25.2365 42.6298 23.8102C42.8627 23.2438 43.2623 22.3772 43.8949 21.2114C44.0505 20.9178 44.2658 20.5789 44.5374 20.208C44.7273 19.9474 44.9481 19.6692 45.1942 19.3811C45.7937 18.6481 46.2927 18.148 46.6592 17.915C46.6614 17.9206 46.6636 17.925 46.6658 17.9305C47.2973 19.3855 47.8636 19.9474 48.9576 19.9474C49.4235 19.9474 50.2559 19.0808 49.9898 18.9152Z" fill="white"/>
<path d="M55.5794 14.578C55.2846 14.2943 54.9335 14.0757 54.5416 13.941C54.1773 13.8174 53.7777 13.7666 53.3505 13.8041C53.1198 13.835 52.9045 13.8803 52.7036 13.941C52.2829 14.068 51.9286 14.2611 51.6427 14.5206C51.0576 15.0516 50.7529 15.8597 50.722 16.9526C50.722 17.0133 50.7198 17.074 50.7198 17.1347C50.7198 17.9539 50.9129 18.9949 51.328 20.2082C51.3667 20.3252 51.4097 20.4433 51.4539 20.5647C51.8712 21.778 52.1483 22.6854 52.2841 23.2827C52.3978 23.785 52.411 24.0665 52.3194 24.1283C52.23 24.0875 52.1361 24.0267 52.0335 23.9473C51.7166 23.6956 51.3336 23.244 50.8533 22.5629C50.2208 21.6632 49.8222 21.2315 49.5893 21.2315C49.4888 21.2315 49.3564 21.2646 49.2217 21.332C49.1433 21.375 49.076 21.4192 49.0152 21.4645C48.7933 21.63 48.6896 21.8144 48.6896 21.9977C48.6896 22.076 48.6995 22.1566 48.7205 22.2438C48.8463 22.7881 49.3729 23.509 50.3212 24.4286C50.7385 24.8216 51.1282 25.1406 51.4892 25.3879C52.0754 25.7898 52.5854 25.994 53.0182 25.994C53.1518 26.0282 53.3174 26.0282 53.5503 26.0282C54.3164 26.0282 54.5825 25.6948 54.5825 24.73C54.5825 24.497 54.3827 23.3312 53.9499 21.2337C53.9135 21.109 53.8031 20.7855 53.6452 20.2115C53.6198 20.1165 53.5922 20.015 53.5635 19.9046C53.4421 19.4398 53.3008 18.8448 53.1496 18.1029C52.8504 16.3377 53.1827 15.4711 53.8163 15.4711C54.1486 15.4711 54.3816 15.704 54.5483 16.171C54.6156 16.4028 54.6487 16.6026 54.6487 16.7704C54.6487 16.8753 54.6322 17.0045 54.6112 17.1347C54.5715 17.3743 54.5151 17.615 54.5151 17.7022C54.5151 17.8689 54.6156 18.0698 54.7812 18.2354C55.0815 18.5346 55.3807 18.6681 55.6809 18.6681C56.2804 18.6681 56.5795 18.1349 56.5795 17.0696C56.5795 16.0749 56.2042 15.1807 55.5794 14.5791V14.578Z" fill="white"/>
<path d="M66.0514 21.6132C66.0183 21.5127 65.9851 21.4796 65.9509 21.5127C65.3482 22.1155 64.7355 22.6244 64.115 23.0395C62.7108 23.98 61.258 24.4437 59.7577 24.4437C59.7125 24.4437 59.6683 24.4437 59.6252 24.4437C59.0302 24.4261 58.6085 24.2925 58.359 24.0121C57.86 23.48 57.7938 22.6134 58.1603 21.4476C58.7255 21.8152 59.3923 22.0139 60.1242 22.0139C60.3241 22.0139 60.4576 22.0139 60.557 21.9808C61.6179 21.7423 62.4966 21.0656 63.1182 20.21C63.4527 19.7519 63.7132 19.2397 63.8865 18.7164C64.0521 18.2174 64.1526 17.6842 64.1526 17.1521C64.1526 16.9192 64.1526 16.7193 64.1195 16.5858C64.019 16.0194 63.7529 15.6198 63.2871 15.3526C63.2263 15.3162 63.1645 15.2831 63.1027 15.2533C62.8212 15.1186 62.5209 15.0535 62.2206 15.0535C61.0493 15.0535 59.8262 15.6761 58.5224 16.8949V16.8971C58.3789 17.0307 58.2365 17.1697 58.0919 17.3166C57.2098 18.2406 56.5927 19.201 56.2505 20.2089C56.0363 20.8371 55.9281 21.4807 55.9281 22.1453C55.9281 22.6321 55.9546 23.0516 56.0495 23.4303C56.1942 24.0132 56.5011 24.5055 57.127 25.0089C57.7287 25.498 58.3601 25.8248 59.0402 25.9848C59.1174 26.0047 59.1947 26.0213 59.2731 26.0356C59.5369 26.0831 59.8096 26.1074 60.09 26.1074C60.345 26.1074 60.6111 26.0831 60.8815 26.0356C61.693 25.8965 62.5518 25.5631 63.329 25.1116C64.0521 24.6921 64.7068 24.1688 65.1848 23.6091L65.3183 23.4435C65.8847 22.7436 66.1176 22.1111 66.0503 21.6121L66.0514 21.6132ZM62.5386 16.7491C62.5651 16.7624 62.5816 16.7845 62.5883 16.8187C62.6722 16.9821 62.5275 17.3044 62.1401 17.8023V17.8056C62.0573 17.9127 61.9634 18.0264 61.8574 18.1501C61.2911 18.8489 60.8595 19.2827 60.5592 19.4825C59.9266 20.082 59.3603 20.2807 58.9275 20.0478C59.676 18.5508 62.15 16.5571 62.5408 16.7491H62.5386Z" fill="white"/>
<path d="M68.0703 23.4143C68.0218 23.4143 67.9732 23.4176 67.9279 23.4231C67.1485 23.5114 66.5458 24.2997 66.5458 24.94C66.5458 25.3782 66.7114 25.7414 66.9874 25.9081C67.0911 25.9711 67.2115 26.0064 67.345 26.0064C67.6597 26.0064 67.9986 25.8132 68.3607 25.4489C68.725 25.0857 68.9182 24.6993 68.9182 24.335C68.9182 23.73 68.6278 23.4154 68.0703 23.4154V23.4143Z" fill="white"/>
<path d="M86.1413 21.6292C86.0916 21.67 85.3034 22.424 84.3783 23.125C84.1531 23.295 83.9213 23.4628 83.6883 23.6152V23.6174C83.1032 24.0016 82.5248 24.2985 82.0865 24.3283C81.295 24.4387 80.9516 24.0027 80.8743 23.2067C80.796 22.4008 80.9053 21.4017 81.1735 20.2084C81.1912 20.1267 81.2111 20.045 81.2309 19.9611C81.3038 19.6443 81.38 19.3385 81.4617 19.0437C81.7244 18.0921 82.0324 17.2443 82.3658 16.4726C82.5535 15.9857 82.283 15.6104 81.518 15.3156C80.7143 14.958 80.2175 15.0065 79.9614 15.4658C79.6445 15.2858 79.3167 15.1765 78.9855 15.1302C77.3152 14.8939 75.529 16.2143 74.3974 17.7753C74.0905 18.1848 73.8002 18.6253 73.5319 19.0801V19.0834C73.3156 19.45 73.1158 19.8264 72.9358 20.2062C72.4788 21.1721 72.152 22.1558 72.0361 23.0279V23.0323C71.8164 24.6882 72.3529 25.95 74.1833 25.9578C74.4272 25.9523 74.6779 25.9114 74.9329 25.8363C76.1053 25.4897 77.3903 24.4012 78.8044 22.5344C78.9214 23.2465 79.1411 23.868 79.4414 24.3813C80.0221 25.3782 80.9031 25.971 81.922 26.0328C82.0479 26.0417 82.1737 26.0417 82.304 26.0328C82.4607 26.0229 82.6208 25.9997 82.782 25.9644C82.7886 25.9644 82.7963 25.9611 82.803 25.96C83.4477 25.8143 84.0979 25.3429 84.7448 24.5778C84.9457 24.3394 85.1478 24.0722 85.3476 23.7764C86.0177 22.742 86.3842 22.0365 86.3754 21.6027C86.3632 21.4702 86.2959 21.4757 86.1435 21.6259L86.1413 21.6292ZM77.1728 21.256C76.8261 21.7175 76.5027 22.1248 76.2024 22.4792V22.4814C75.4263 23.3966 74.8125 23.9486 74.3732 24.1351C74.117 24.261 74.0342 24.1009 74.0994 23.7267C74.4261 22.53 75.0201 21.2847 75.6935 20.2084C76.4828 18.9488 77.3825 17.921 78.0935 17.4783C78.5196 17.2122 78.8795 17.157 79.1058 17.3889C79.1621 17.9707 78.7625 18.9167 77.908 20.2084C77.6916 20.5351 77.4455 20.8851 77.1706 21.256H77.1728Z" fill="white"/>
<path d="M92.035 22.4825C92.0262 22.4881 92.0174 22.4925 92.0085 22.498L91.2104 22.9981C90.7776 23.2973 90.3107 23.5975 89.8779 23.8305C89.1581 24.2621 88.0144 24.7203 87.309 24.5105C87.1986 24.4796 87.1004 24.4299 87.0143 24.3637C86.714 24.1981 86.5484 23.8316 86.5484 23.2652C86.5484 22.4141 86.7416 21.3918 87.128 20.2095C87.4216 19.3098 87.8279 18.3173 88.3467 17.2376C88.647 16.6724 88.3136 16.3059 87.3476 16.073C87.0286 15.9438 86.778 15.9173 86.5605 16.0354C86.3232 16.1646 86.1245 16.466 85.9158 17.0047C85.4444 18.187 85.0713 19.2513 84.813 20.2095C84.7059 20.6025 84.6198 20.9756 84.5513 21.3344C84.5513 21.341 84.5491 21.3466 84.548 21.3532V21.3565C84.41 22.0122 84.3548 22.6029 84.3813 23.125C84.4089 23.6847 84.5304 24.1694 84.7456 24.5823C84.8571 24.7953 84.9918 24.9885 85.153 25.1629C85.5394 25.567 85.9754 25.8584 86.4545 26.0373C86.5373 26.0682 86.619 26.0958 86.704 26.119C87.1048 26.2327 87.5331 26.2691 87.9824 26.2294C88.2319 26.2106 88.4913 26.1466 88.7585 26.0384C89.4154 25.7723 90.1219 25.2369 90.8792 24.4321C91.1651 24.1352 91.408 23.8669 91.6045 23.6284C92.0052 23.1438 92.2216 22.7795 92.2437 22.5344C92.2757 22.4075 92.1874 22.4008 92.0373 22.4847L92.035 22.4825ZM90.3438 10.0112C89.9773 9.64464 89.6119 9.44482 89.3116 9.44482C89.2144 9.44482 89.1217 9.46138 89.0345 9.49671C88.732 9.61152 88.4858 9.92063 88.2805 10.4108C88.0476 11.0445 87.9129 11.6108 87.9129 12.1098C87.9129 12.2257 87.9151 12.3339 87.9206 12.4376C87.9427 12.845 88.0078 13.1552 88.1127 13.3418C88.2794 13.6421 88.4792 13.8077 88.7121 13.8077C89.1129 13.8077 89.5445 13.4411 89.9773 12.7423C90.41 12.0435 90.6441 11.4441 90.6441 11.0102C90.6441 10.5444 90.5436 10.211 90.3438 10.0123V10.0112Z" fill="white"/>
<path d="M18.3173 0.725142C18.0612 0.435906 17.7377 0.225051 17.3525 0.111343C16.19 -0.231987 15.0695 0.26038 14.0848 1.01769C12.006 2.61732 10.498 4.84069 9.07169 7.00665C7.344 9.62965 5.91107 12.4392 4.82036 15.3846C4.79939 15.4409 4.02441 15.3978 3.95928 15.4011C3.53205 15.4155 2.86636 15.3614 2.49875 15.612C2.04723 15.9189 1.65532 17.7746 2.4855 17.8376C2.51972 17.8398 3.89525 17.7492 4.09506 17.7647C4.0211 17.7592 3.74842 18.6821 3.50555 19.563C3.30132 20.306 3.11586 21.018 3.09047 21.1196C2.80454 22.239 2.60252 23.3871 2.56719 24.5441C2.55836 24.8068 2.55946 25.0707 2.5705 25.3356C2.57492 25.467 2.58265 25.5984 2.59258 25.7297C2.64226 26.3689 2.76038 26.9794 2.94695 27.5612C3.10151 28.1419 3.4901 28.7071 4.10942 29.3253C4.17897 29.3915 4.24851 29.4545 4.31475 29.5119C4.87446 29.9921 5.34364 30.161 5.81613 29.8409C6.0866 29.6664 6.28973 29.4534 6.12082 29.1211C6.05569 28.9941 5.95854 28.8881 5.86691 28.78C5.57326 28.4322 5.34805 28.0646 5.17915 27.6804C4.87446 26.9938 4.75302 26.2596 4.74861 25.5089C4.74529 24.7516 4.86121 23.9778 5.03011 23.2182C5.27078 22.1209 5.57326 20.9706 5.95744 19.7595C6.15836 19.1237 6.38246 18.4712 6.63085 17.8011C7.21153 17.7647 8.31438 17.7249 9.90518 17.6786C10.243 17.6686 10.604 17.6576 10.986 17.6477C11.4231 17.6157 11.8239 17.6146 11.528 18.3917C11.3061 18.9768 11.0875 19.563 10.8711 20.1514C10.4516 21.2951 10.0432 22.4444 9.64575 23.5936C9.39074 24.331 9.65127 25.1413 10.2463 25.6215C10.3446 25.7021 10.4516 25.7728 10.5676 25.8324C10.6956 25.9019 10.8082 25.9582 10.9065 26.0002C11.1471 26.104 11.3072 26.1238 11.4364 26.0421C11.6086 25.9329 11.7223 25.6436 11.8934 25.1358L13.5946 20.3678L14.6875 17.3066C14.7747 17.0317 14.7339 16.7612 14.5595 16.494C14.4645 16.3483 14.3287 16.2048 14.1532 16.0613C13.6509 15.6539 13.0967 15.4751 12.4641 15.4585C11.9265 15.4353 11.4331 15.4155 10.9826 15.3978C9.09488 15.3272 7.98209 15.3084 7.63214 15.3073C7.81539 15.251 8.11236 14.1835 8.18964 14.0035C8.4866 13.3058 8.86857 12.6479 9.23618 11.9844C10.4428 9.80849 11.6792 7.64694 13.0603 5.57592C13.1795 5.39818 15.9052 1.3842 16.3225 2.29607C16.4318 2.53563 16.2308 2.98936 16.1613 3.21677C16.0321 3.64069 15.8698 4.04032 15.6932 4.44878C15.4106 5.10122 15.117 5.74924 14.8123 6.39175C14.5484 6.94814 14.1963 7.59174 14.5738 8.1923C15.1589 9.12293 16.5653 8.87233 17.1195 8.13379C17.9298 7.05301 18.1407 5.6267 18.367 4.33177C18.5359 3.36691 19.0548 1.55973 18.3162 0.72404L18.3173 0.725142Z" fill="white"/>
<path d="M15.5672 12.0072C15.3056 11.7003 15.034 11.5226 14.8022 11.5049C14.7271 11.4994 14.6531 11.5049 14.5847 11.5281C14.3429 11.5976 14.1332 11.8228 13.9433 12.1905C13.7236 12.6674 13.5845 13.0979 13.5536 13.4854C13.547 13.5748 13.5415 13.6598 13.5392 13.7404C13.5315 14.0573 13.5624 14.3023 13.6331 14.4536C13.7446 14.6964 13.8881 14.8377 14.0691 14.8521C14.3794 14.8764 14.737 14.6192 15.1157 14.1047C15.4943 13.5892 15.7129 13.1388 15.7394 12.8032C15.7681 12.4422 15.7107 12.1772 15.5683 12.0105L15.5672 12.0072Z" fill="white"/>
</g>
<defs>
<filter id="filter0_d_1_1655" x="0" y="0" width="94.2502" height="34.0049" filterUnits="userSpaceOnUse" color-interpolation-filters="sRGB">
<feFlood flood-opacity="0" result="BackgroundImageFix"/>
<feColorMatrix in="SourceAlpha" type="matrix" values="0 0 0 0 0 0 0 0 0 0 0 0 0 0 0 0 0 0 127 0" result="hardAlpha"/>
<feOffset dy="2"/>
<feGaussianBlur stdDeviation="1"/>
<feComposite in2="hardAlpha" operator="out"/>
<feColorMatrix type="matrix" values="0 0 0 0 0 0 0 0 0 0 0 0 0 0 0 0 0 0 0.15 0"/>
<feBlend mode="normal" in2="BackgroundImageFix" result="effect1_dropShadow_1_1655"/>
<feBlend mode="normal" in="SourceGraphic" in2="effect1_dropShadow_1_1655" result="shape"/>
</filter>
</defs>
</svg>
