<svg width="22" height="20" viewBox="0 0 22 20" fill="none" xmlns="http://www.w3.org/2000/svg">
<path d="M16.2696 0.714355C17.6551 0.714355 18.9879 1.26118 19.9684 2.24237C20.9499 3.2215 21.4985 4.54213 21.4985 5.92467V14.0755C21.4985 16.954 19.1532 19.2858 16.2696 19.2858H6.06285C3.17924 19.2858 0.834961 16.954 0.834961 14.0755V5.92467C0.834961 3.0461 3.16891 0.714355 6.06285 0.714355H16.2696ZM17.4381 6.07943C17.2212 6.06809 17.0145 6.14134 16.8585 6.28578L12.1999 10.0001C11.6007 10.4963 10.7421 10.4963 10.1336 10.0001L5.48427 6.28578C5.16295 6.04848 4.71868 6.07943 4.45109 6.35801C4.17213 6.63658 4.14113 7.08023 4.37773 7.38975L4.51308 7.52388L9.21404 11.1866C9.79262 11.6405 10.4942 11.8882 11.2287 11.8882C11.9613 11.8882 12.6752 11.6405 13.2527 11.1866L17.9134 7.46197L17.9961 7.37944C18.243 7.08023 18.243 6.6469 17.9847 6.34769C17.8411 6.19396 17.6438 6.10007 17.4381 6.07943Z" fill="white"/>
</svg>
