<svg width="28" height="28" viewBox="0 0 28 28" fill="none" xmlns="http://www.w3.org/2000/svg">
<path fill-rule="evenodd" clip-rule="evenodd" d="M13.1563 10.9242C13.7066 11.5026 13.7066 12.4429 13.1563 13.0213C12.606 13.6008 11.7148 13.6008 11.1645 13.0213C10.6142 12.4429 10.6142 11.5026 11.1645 10.9242C11.7148 10.3448 12.606 10.3448 13.1563 10.9242ZM8.7177 15.3263L14.3823 21.2915L21.0104 14.3128L15.3458 8.34754L8.03498 7.6297L8.7177 15.3263ZM14.3823 23.3422C13.9456 23.3422 13.5099 23.1672 13.1765 22.8181L7.15036 16.4722C6.99541 16.3101 6.89962 16.0945 6.87896 15.8651L6.06007 6.6261C6.03471 6.33343 6.13332 6.04372 6.33147 5.83509C6.52962 5.62646 6.80383 5.52066 7.08274 5.55033L15.8576 6.41253C16.0755 6.43329 16.2793 6.53415 16.4342 6.69729L22.4604 13.0422C22.7825 13.3814 22.96 13.8322 22.96 14.3128C22.96 14.7933 22.7825 15.2442 22.4604 15.5833L15.589 22.8171C15.2566 23.1672 14.8199 23.3422 14.3823 23.3422Z" fill="#03C3EF"/>
</svg>
